<?xml version="1.0" encoding="UTF-8"?>
<svg width="24px" height="24px" viewBox="0 0 24 24" version="1.1" xmlns="http://www.w3.org/2000/svg" xmlns:xlink="http://www.w3.org/1999/xlink">
    <!-- Generator: Sketch 47.1 (45422) - http://www.bohemiancoding.com/sketch -->
    <title>ic_check_box</title>
    <desc>Created with Sketch.</desc>
    <defs></defs>
    <g id="Page-1" stroke="none" stroke-width="1" fill="none" fill-rule="evenodd">
        <g id="Icons" transform="translate(-280.000000, -853.000000)">
            <g id="ic_check_box" transform="translate(280.000000, 853.000000)">
                <polygon id="Shape" points="0 0 24 0 24 24 0 24"></polygon>
                <path d="M19,3 L5,3 C3.89,3 3,3.9 3,5 L3,19 C3,20.1 3.89,21 5,21 L19,21 C20.11,21 21,20.1 21,19 L21,5 C21,3.9 20.11,3 19,3 Z M9.29289322,16.2928932 L5.705,12.705 C5.31563925,12.3156393 5.31563925,11.6843607 5.705,11.295 C6.0945197,10.9054803 6.72591999,10.90504 7.11598258,11.2940161 L10,14.17 L16.8824956,7.28750442 C17.2718612,6.8981388 17.9031476,6.8981388 18.2925132,7.28750442 L18.295,7.29 L18.2978816,7.29290203 C18.6860516,7.68382497 18.6849363,8.3150637 18.2953874,8.70461259 L10.7071068,16.2928932 C10.3165825,16.6834175 9.68341751,16.6834175 9.29289322,16.2928932 Z" id="Shape" fill="#87E389" fill-rule="nonzero"></path>
            </g>
        </g>
    </g>
</svg>